<svg width="20" height="20" viewBox="0 0 20 20" fill="none" xmlns="http://www.w3.org/2000/svg">
<path fill-rule="evenodd" clip-rule="evenodd" d="M18 0.997681H2C1.44772 0.997681 1 1.4454 1 1.99768V17.9977C1 18.55 1.44772 18.9977 2 18.9977H18C18.5523 18.9977 19 18.55 19 17.9977V1.99768C19 1.4454 18.5523 0.997681 18 0.997681ZM2 -0.00231934C0.895431 -0.00231934 0 0.893112 0 1.99768V17.9977C0 19.1023 0.895431 19.9977 2 19.9977H18C19.1046 19.9977 20 19.1022 20 17.9977V1.99768C20 0.893111 19.1046 -0.00231934 18 -0.00231934H2ZM10 3.49768C10.2761 3.49768 10.5 3.72154 10.5 3.99768V9.49768H16C16.2761 9.49768 16.5 9.72154 16.5 9.99768C16.5 10.2738 16.2761 10.4977 16 10.4977H10.5V15.9977C10.5 16.2738 10.2761 16.4977 10 16.4977C9.72386 16.4977 9.5 16.2738 9.5 15.9977V10.4977H4C3.72386 10.4977 3.5 10.2738 3.5 9.99768C3.5 9.72154 3.72386 9.49768 4 9.49768H9.5V3.99768C9.5 3.72154 9.72386 3.49768 10 3.49768Z" fill="white"/>
</svg>
