<svg width="20" height="20" viewBox="0 0 20 20" fill="none" xmlns="http://www.w3.org/2000/svg">
<path fill-rule="evenodd" clip-rule="evenodd" d="M2 1H6.75C7.30228 1 7.75 1.44772 7.75 2V6.75C7.75 7.30228 7.30228 7.75 6.75 7.75H2C1.44772 7.75 1 7.30228 1 6.75V2C1 1.44772 1.44772 1 2 1ZM0 2C0 0.89543 0.895431 0 2 0H6.75C7.85457 0 8.75 0.895431 8.75 2V6.75C8.75 7.85457 7.85457 8.75 6.75 8.75H2C0.89543 8.75 0 7.85457 0 6.75V2ZM13.25 1H18C18.5523 1 19 1.44772 19 2V6.75C19 7.30228 18.5523 7.75 18 7.75H13.25C12.6977 7.75 12.25 7.30228 12.25 6.75V2C12.25 1.44772 12.6977 1 13.25 1ZM11.25 2C11.25 0.89543 12.1454 0 13.25 0H18C19.1046 0 20 0.895431 20 2V6.75C20 7.85457 19.1046 8.75 18 8.75H13.25C12.1454 8.75 11.25 7.85457 11.25 6.75V2ZM18 12.25H13.25C12.6977 12.25 12.25 12.6977 12.25 13.25V18C12.25 18.5523 12.6977 19 13.25 19H18C18.5523 19 19 18.5523 19 18V13.25C19 12.6977 18.5523 12.25 18 12.25ZM13.25 11.25C12.1454 11.25 11.25 12.1454 11.25 13.25V18C11.25 19.1046 12.1454 20 13.25 20H18C19.1046 20 20 19.1046 20 18V13.25C20 12.1454 19.1046 11.25 18 11.25H13.25ZM2 12.25H6.75C7.30228 12.25 7.75 12.6977 7.75 13.25V18C7.75 18.5523 7.30228 19 6.75 19H2C1.44772 19 1 18.5523 1 18V13.25C1 12.6977 1.44772 12.25 2 12.25ZM0 13.25C0 12.1454 0.895431 11.25 2 11.25H6.75C7.85457 11.25 8.75 12.1454 8.75 13.25V18C8.75 19.1046 7.85457 20 6.75 20H2C0.89543 20 0 19.1046 0 18V13.25Z" fill="white"/>
</svg>
