<svg width="20.000000" height="20.000000" viewBox="0 0 20 20" fill="none" xmlns="http://www.w3.org/2000/svg" xmlns:xlink="http://www.w3.org/1999/xlink">
	<desc>
			Created with Pixso.
	</desc>
	<defs/>
	<mask id="mask_42_4323" fill="white">
		<path id="Union" d="M18 0C19.1055 0 20 0.895386 20 2L20 14C20 15.1046 19.1055 16 18 16L16 16L16 18C16 19.1046 15.1055 20 14 20L2 20C0.894531 20 0 19.1046 0 18L0 6C0 4.89539 0.894531 4 2 4L4 4L4 2C4 0.895386 4.89453 0 6 0L18 0ZM16 15L16 6C16 4.89539 15.1055 4 14 4L5 4L5 2C5 1.44775 5.44727 1 6 1L18 1C18.5527 1 19 1.44775 19 2L19 14C19 14.5522 18.5527 15 18 15L16 15Z" clip-rule="evenodd" fill="" fill-opacity="1.000000" fill-rule="evenodd"/>
	</mask>
	<path id="Union" d="M3 4L2 4C0.894531 4 0 4.89539 0 6L0 18C0 19.1046 0.894531 20 2 20L14 20C15.1055 20 16 19.1046 16 18L16 16L18 16Q18.0269 16 18.0536 15.9993C18.219 15.9949 18.3793 15.9706 18.5322 15.9285C18.6672 15.8914 18.7964 15.8405 18.9184 15.7774C19.0527 15.7078 19.1782 15.6235 19.2925 15.5266C19.3737 15.4578 19.4492 15.3827 19.5185 15.3021C19.5987 15.2085 19.6705 15.1075 19.7325 15.0002C19.8416 14.8115 19.9208 14.6034 19.9636 14.3822Q19.9952 14.2198 19.9994 14.0516Q20 14.0259 20 14L20 2Q20 1.96928 19.9991 1.93881Q19.9943 1.77559 19.9636 1.61788C19.9208 1.39668 19.8416 1.18849 19.7325 0.999785C19.6705 0.892476 19.5987 0.791472 19.5185 0.697967C19.4492 0.61727 19.3737 0.542158 19.2925 0.473401C19.1781 0.376444 19.0527 0.292122 18.9183 0.222591C18.7964 0.159537 18.6672 0.108646 18.5323 0.0715249C18.3629 0.0249025 18.1844 0 18 0L6 0C5.81567 0 5.63721 0.0248946 5.46778 0.0715029C5.33285 0.108618 5.20366 0.159503 5.0818 0.222551C4.94708 0.292248 4.82132 0.376808 4.70668 0.474062C4.62581 0.542665 4.55048 0.617583 4.48143 0.698056C4.40123 0.791536 4.32952 0.89251 4.26748 0.999786C4.15836 1.18849 4.07918 1.39668 4.03643 1.61788C4.01252 1.74157 4 1.86932 4 2L4 4L3 4ZM4 5L2 5Q1.86237 5 1.73441 5.03519Q1.67171 5.05243 1.61133 5.07812Q1.52852 5.11312 1.45442 5.16146Q1.36773 5.21802 1.29297 5.29285Q1.21651 5.36944 1.15905 5.45832Q1.1123 5.53064 1.07812 5.61108Q1.04749 5.68355 1.02887 5.75898Q1 5.87592 1 6L1 18Q1 18.1241 1.02887 18.241Q1.04749 18.3165 1.07812 18.3889Q1.1123 18.4694 1.15905 18.5417Q1.21651 18.6306 1.29297 18.7072Q1.36773 18.782 1.45442 18.8385Q1.52852 18.8869 1.61133 18.9219Q1.67171 18.9476 1.73441 18.9648Q1.86237 19 2 19L14 19Q14.1376 19 14.2656 18.9648Q14.3283 18.9476 14.3887 18.9219Q14.4715 18.8869 14.5456 18.8385Q14.6323 18.782 14.707 18.7072Q14.7835 18.6306 14.841 18.5417Q14.8877 18.4694 14.9219 18.3889Q14.9525 18.3165 14.9711 18.241Q15 18.1241 15 18L15 6Q15 5.87592 14.9711 5.75898Q14.9525 5.68355 14.9219 5.61108Q14.8877 5.53064 14.841 5.45832Q14.7835 5.36944 14.707 5.29285Q14.6323 5.21802 14.5456 5.16146Q14.4715 5.11312 14.3887 5.07812Q14.3283 5.05243 14.2656 5.03519Q14.1376 5 14 5L4 5ZM16 15L18 15C18.247 15 18.473 14.9106 18.6474 14.7623C18.7026 14.7154 18.7526 14.6626 18.7965 14.6049C18.9242 14.4369 19 14.2273 19 14L19 2C19 1.7727 18.9242 1.5631 18.7965 1.39514C18.7526 1.33741 18.7026 1.2846 18.6474 1.23767C18.473 1.08944 18.247 1 18 1L6 1C5.75296 1 5.527 1.08944 5.35261 1.23767C5.29741 1.2846 5.24737 1.33741 5.20348 1.39514C5.07577 1.5631 5 1.7727 5 2L5 4L14 4C15.1055 4 16 4.89539 16 6L16 15Z" clip-rule="evenodd" fill="#FF8100" fill-opacity="1.000000" fill-rule="evenodd"/>
</svg>
