<svg width="20" height="20" viewBox="0 0 20 20" fill="none" xmlns="http://www.w3.org/2000/svg">
<path fill-rule="evenodd" clip-rule="evenodd" d="M12.8585 3.44059L10.7095 1.2926C10.3189 0.902161 9.68557 0.902161 9.29495 1.2926L7.14597 3.44059C6.75536 3.83102 6.75536 4.46404 7.14597 4.85448L9.29495 7.00247C9.68557 7.39291 10.3189 7.39291 10.7095 7.00247L12.8585 4.85448C13.2491 4.46404 13.2491 3.83102 12.8585 3.44059ZM11.4168 0.585652C10.6355 -0.195217 9.36891 -0.195217 8.58768 0.585651L6.4387 2.73364C5.65747 3.51451 5.65747 4.78055 6.4387 5.56142L8.58768 7.70941C9.36891 8.49028 10.6355 8.49028 11.4168 7.70941L13.5657 5.56142C14.347 4.78055 14.347 3.51451 13.5657 2.73365L11.4168 0.585652ZM4.85671 7.13854L7.00569 9.28654C7.39631 9.67697 7.39631 10.31 7.00569 10.7004L4.85671 12.8484C4.4661 13.2389 3.83279 13.2389 3.44217 12.8484L1.29319 10.7004C0.902577 10.31 0.902576 9.67697 1.29319 9.28654L3.44217 7.13854C3.83279 6.74811 4.4661 6.74811 4.85671 7.13854ZM2.7349 6.4316C3.51613 5.65073 4.78275 5.65073 5.56398 6.4316L7.71296 8.57959C8.49419 9.36046 8.49419 10.6265 7.71296 11.4074L5.56398 13.5554C4.78275 14.3362 3.51613 14.3362 2.7349 13.5554L0.585921 11.4074C-0.195307 10.6265 -0.195307 9.36046 0.585921 8.57959L2.7349 6.4316ZM16.5582 7.13854L18.7072 9.28654C19.0978 9.67697 19.0978 10.31 18.7072 10.7004L16.5582 12.8484C16.1676 13.2389 15.5343 13.2389 15.1436 12.8484L12.9947 10.7004C12.604 10.31 12.604 9.67697 12.9947 9.28654L15.1436 7.13854C15.5343 6.74811 16.1676 6.74811 16.5582 7.13854ZM14.4364 6.4316C15.2176 5.65073 16.4842 5.65073 17.2655 6.4316L19.4144 8.57959C20.1957 9.36046 20.1957 10.6265 19.4144 11.4074L17.2655 13.5554C16.4842 14.3362 15.2176 14.3362 14.4364 13.5554L12.2874 11.4074C11.5062 10.6265 11.5062 9.36046 12.2874 8.57959L14.4364 6.4316ZM10.7095 12.9952L12.8585 15.1432C13.2491 15.5337 13.2491 16.1667 12.8585 16.5571L10.7095 18.7051C10.3189 19.0955 9.68557 19.0955 9.29495 18.7051L7.14597 16.5571C6.75536 16.1667 6.75536 15.5337 7.14597 15.1432L9.29495 12.9952C9.68557 12.6048 10.3189 12.6048 10.7095 12.9952ZM8.58768 12.2883C9.36891 11.5074 10.6355 11.5074 11.4168 12.2883L13.5657 14.4363C14.347 15.2172 14.347 16.4832 13.5657 17.2641L11.4168 19.4121C10.6355 20.1929 9.36891 20.1929 8.58768 19.4121L6.4387 17.2641C5.65747 16.4832 5.65747 15.2171 6.4387 14.4363L8.58768 12.2883Z" fill="#FF8100"/>
</svg>
