<svg width="17" height="14" viewBox="0 0 17 14" fill="none" xmlns="http://www.w3.org/2000/svg">
<path fill-rule="evenodd" clip-rule="evenodd" d="M0.5 1C0.5 0.447715 0.947715 0 1.5 0H15.5C16.0523 0 16.5 0.447714 16.5 0.999999C16.5 1.55228 16.0523 2 15.5 2L1.5 2C0.947715 2 0.5 1.55228 0.5 1ZM0.5 7C0.5 6.44772 0.947715 6 1.5 6L15.5 6C16.0523 6 16.5 6.44772 16.5 7C16.5 7.55228 16.0523 8 15.5 8L1.5 8C0.947715 8 0.5 7.55229 0.5 7ZM1.5 12C0.947715 12 0.5 12.4477 0.5 13C0.5 13.5523 0.947715 14 1.5 14L15.5 14C16.0523 14 16.5 13.5523 16.5 13C16.5 12.4477 16.0523 12 15.5 12L1.5 12Z" fill="#202020"/>
</svg>
