<svg width="8.925781" height="10.240234" viewBox="0 0 8.92578 10.2402" fill="none" xmlns="http://www.w3.org/2000/svg" xmlns:xlink="http://www.w3.org/1999/xlink">
	<desc>
			Created with Pixso.
	</desc>
	<defs/>
	<path id="%" d="M0.24 1Q-0.01 1.46 -0.01 2.05L-0.01 2.53Q-0.01 3.24 0.32 3.74Q0.43 3.91 0.58 4.05Q0.78 4.25 1.02 4.38Q1.47 4.62 2.04 4.62Q2.62 4.62 3.06 4.38Q3.3 4.25 3.5 4.05Q3.68 3.87 3.8 3.66Q4.07 3.2 4.07 2.58L4.07 2.09Q4.07 1.41 3.76 0.91Q3.65 0.73 3.5 0.58Q3.32 0.39 3.11 0.27Q2.65 0 2.03 0Q1.44 0 1 0.25Q0.76 0.38 0.56 0.58Q0.37 0.77 0.24 1ZM1.13 3.31Q0.94 3 0.94 2.58L0.94 2.08Q0.94 1.57 1.18 1.24Q1.2 1.2 1.23 1.17Q1.34 1.05 1.47 0.97Q1.71 0.82 2.03 0.82Q2.36 0.82 2.59 0.97Q2.73 1.05 2.83 1.17Q2.88 1.23 2.93 1.3Q3.12 1.62 3.12 2.05L3.12 2.55Q3.12 3.11 2.85 3.44Q2.84 3.45 2.83 3.47Q2.71 3.6 2.57 3.67Q2.34 3.8 2.04 3.8Q1.72 3.8 1.48 3.66Q1.35 3.58 1.24 3.46Q1.18 3.39 1.13 3.31ZM1.61 8.89L2.33 9.34L7.19 1.56L6.47 1.11L1.61 8.89ZM5.09 6.6Q4.84 7.05 4.84 7.65L4.84 8.14Q4.84 8.85 5.17 9.35Q5.28 9.52 5.42 9.66Q5.63 9.86 5.87 9.99Q6.31 10.24 6.89 10.24Q7.47 10.24 7.91 9.99Q8.15 9.86 8.35 9.66Q8.54 9.47 8.67 9.24Q8.92 8.78 8.92 8.18L8.92 7.7Q8.92 6.98 8.59 6.47Q8.49 6.31 8.35 6.17Q8.15 5.98 7.93 5.85Q7.47 5.6 6.88 5.6Q6.28 5.6 5.83 5.85Q5.6 5.98 5.41 6.18Q5.22 6.37 5.09 6.6ZM5.99 8.94Q5.78 8.63 5.78 8.18L5.78 7.68Q5.78 7.15 6.04 6.83Q6.06 6.8 6.09 6.77Q6.21 6.63 6.36 6.55Q6.59 6.43 6.88 6.43Q7.2 6.43 7.43 6.57Q7.57 6.65 7.67 6.77Q7.72 6.82 7.76 6.89Q7.97 7.2 7.97 7.65L7.97 8.16Q7.97 8.72 7.69 9.06Q7.69 9.07 7.68 9.08Q7.57 9.2 7.44 9.28Q7.2 9.41 6.89 9.41Q6.57 9.41 6.33 9.27Q6.19 9.19 6.08 9.07Q6.03 9.01 5.99 8.94Z" fill="#303030" fill-opacity="1.000000" fill-rule="evenodd"/>
</svg>
