<svg width="16.000000" height="16.000000" viewBox="0 0 16 16" fill="none" xmlns="http://www.w3.org/2000/svg" xmlns:xlink="http://www.w3.org/1999/xlink">
	<desc>
			Created with Pixso.
	</desc>
	<defs/>
	<path id="Union" d="M0 6C0 2.68652 2.68628 0 6 0C9.31372 0 12 2.68652 12 6C12 7.47705 11.4663 8.8291 10.5815 9.87451L15.3535 14.6465C15.5515 14.8442 15.5515 15.1558 15.3535 15.3535C15.1555 15.5518 14.8445 15.5518 14.6465 15.3535L9.87451 10.5815C8.8291 11.4663 7.47681 12 6 12C2.68628 12 0 9.31348 0 6ZM1 6C1 3.23877 3.23853 1 6 1C8.76147 1 11 3.23877 11 6C11 8.76123 8.76147 11 6 11C3.23853 11 1 8.76123 1 6Z" clip-rule="evenodd" fill="#303030" fill-opacity="1.000000" fill-rule="evenodd"/>
</svg>
