<svg width="4.000000" height="20.000000" viewBox="0 0 4 20" fill="none" xmlns="http://www.w3.org/2000/svg" xmlns:xlink="http://www.w3.org/1999/xlink">
	<desc>
			Created with Pixso.
	</desc>
	<defs/>
	<path id="Union" d="M0 2C0 0.895447 0.894531 0 2 0C3.10547 0 4 0.895447 4 2C4 3.10455 3.10547 4 2 4C0.894531 4 0 3.10455 0 2ZM0 10C0 8.89545 0.894531 8 2 8C3.10547 8 4 8.89545 4 10C4 11.1046 3.10547 12 2 12C0.894531 12 0 11.1046 0 10ZM2 16C0.894531 16 0 16.8954 0 18C0 19.1046 0.894531 20 2 20C3.10547 20 4 19.1046 4 18C4 16.8954 3.10547 16 2 16Z" clip-rule="evenodd" fill="#202020" fill-opacity="1.000000" fill-rule="evenodd"/>
</svg>
